<svg width="24" height="24" viewBox="0 0 24 24" fill="none" xmlns="http://www.w3.org/2000/svg">
<path d="M21 9H9V3C9 2.46957 8.78929 1.96086 8.41421 1.58579C8.03914 1.21071 7.53043 1 7 1H3C2.46957 1 1.96086 1.21071 1.58579 1.58579C1.21071 1.96086 1 2.46957 1 3V9C1.00159 10.3256 1.52888 11.5964 2.46622 12.5338C3.40356 13.4711 4.6744 13.9984 6 14H7.073C7.24379 15.1397 7.69096 16.2204 8.37548 17.1475C9.06 18.0747 9.96106 18.8202 11 19.319L10.075 21.629C10.0145 21.7804 9.99195 21.9444 10.0093 22.1065C10.0267 22.2687 10.0835 22.4241 10.1747 22.5593C10.2659 22.6945 10.3888 22.8053 10.5326 22.8821C10.6765 22.9589 10.8369 22.9994 11 23H19C19.1634 23.0001 19.3244 22.9601 19.4687 22.8835C19.6131 22.807 19.7365 22.6962 19.8282 22.561C19.9199 22.4257 19.977 22.27 19.9946 22.1075C20.0121 21.9451 19.9896 21.7808 19.929 21.629L19 19.319C20.1927 18.7474 21.2003 17.8516 21.9077 16.7341C22.6151 15.6166 22.9936 14.3225 23 13V11C23 10.4696 22.7893 9.96086 22.4142 9.58579C22.0391 9.21071 21.5304 9 21 9ZM21 11V12H9V11H21ZM3 9V3H7V12H6C5.20435 12 4.44129 11.6839 3.87868 11.1213C3.31607 10.5587 3 9.79565 3 9ZM17.417 17.793C17.2836 17.8325 17.1599 17.8993 17.0538 17.9893C16.9477 18.0793 16.8615 18.1904 16.8008 18.3156C16.7401 18.4408 16.7062 18.5772 16.7012 18.7162C16.6963 18.8553 16.7204 18.9938 16.772 19.123L17.523 21H12.477L13.228 19.123C13.2796 18.9938 13.3037 18.8553 13.2988 18.7162C13.2938 18.5772 13.2599 18.4408 13.1992 18.3156C13.1385 18.1904 13.0523 18.0793 12.9462 17.9893C12.8401 17.8993 12.7164 17.8325 12.583 17.793C11.7147 17.5329 10.9328 17.0432 10.3198 16.3756C9.70674 15.708 9.28532 14.8872 9.1 14H20.9C20.7147 14.8872 20.2933 15.708 19.6802 16.3756C19.0672 17.0432 18.2853 17.5329 17.417 17.793Z" fill="#FE375B"/>
</svg>
